<svg width="249" height="40" viewBox="0 0 249 40" fill="none" xmlns="http://www.w3.org/2000/svg">
<path fill-rule="evenodd" clip-rule="evenodd" d="M16.8264 5.79991C20.1917 6.95799 23.7493 7.53704 28.1722 7.58529C28.3978 7.56373 28.6666 7.54216 28.9689 7.51791C30.0197 7.43361 31.4756 7.3168 32.9316 7.0545C34.6623 6.71672 36.345 6.23419 38.0276 5.7034C39.5179 5.26911 40.0467 3.86976 39.4218 2.4704C39.1814 1.98786 38.941 1.50533 38.6526 1.07105C38.2199 0.395495 37.5949 0.00946508 36.8257 0.00946508C36.393 -0.0387886 35.9123 0.105972 35.4796 0.250733C32.2105 1.26406 28.8933 1.65009 25.48 1.40882C23.4127 1.26406 21.4417 0.926285 19.4706 0.347241C18.8937 0.20248 18.461 0.20248 17.9803 0.58851C17.2591 1.16755 16.4899 1.69834 15.7207 2.18088C15.24 2.4704 15.0477 2.95294 15.0477 3.53198C15.0477 4.59356 15.6246 5.36562 16.8264 5.79991ZM54.726 21.6761C54.3482 21.4754 53.9591 21.2688 53.556 21.0481C53.1233 21.2893 52.7387 21.5306 52.4022 21.8201C51.1522 22.4474 49.9022 22.1097 49.1811 20.9516C49.096 20.8234 49.0297 20.6953 48.9656 20.5713C48.8849 20.4152 48.8076 20.2657 48.7004 20.1313C48.0273 19.2144 47.0658 18.8767 45.9601 19.2144C45.7118 19.2856 45.4373 19.4094 45.1752 19.5276C45.0821 19.5695 44.9906 19.6108 44.9024 19.6487C35.2874 23.6538 25.4801 24.3293 15.4324 21.5789C13.4132 20.9998 11.4421 20.2278 9.47103 19.4557C8.173 18.9249 8.02878 18.3459 8.65375 17.0913C8.72587 16.9706 8.78596 16.85 8.84605 16.7294C8.90615 16.6087 8.96624 16.4881 9.03835 16.3675C9.75948 15.0164 10.3845 14.7751 11.7786 15.3541C18.5092 18.1046 25.4801 19.0214 32.6913 18.1046C36.2489 17.6703 39.7103 16.7535 43.0275 15.3541C43.4602 15.1611 43.9409 14.8716 44.2294 14.4856C45.0467 13.5205 44.8063 12.2659 43.7486 11.5421C43.1236 11.1561 42.4987 10.77 41.9218 10.3358C41.2487 9.80496 40.6718 9.80496 39.9026 10.0945C32.9798 12.6037 25.9608 13.038 18.7976 11.3008C17.4745 10.9593 16.2109 10.5284 14.96 10.1017C14.62 9.98576 14.281 9.87014 13.942 9.75671C12.5478 9.27417 11.5863 9.61195 10.8171 10.9148C10.7589 10.9732 10.7183 11.0494 10.674 11.1325C10.6451 11.1866 10.6147 11.2437 10.5768 11.3008C9.71141 12.7484 8.50953 13.0862 7.06727 12.3142C6.99516 12.2659 6.91103 12.2176 6.82689 12.1694C6.74276 12.1211 6.65863 12.0729 6.58652 12.0246C6.20192 11.7351 5.86539 11.7351 5.43272 11.9764C4.51932 12.5071 3.60593 12.9897 2.69253 13.4722L2.69243 13.4722C2.06746 13.7618 1.87516 14.2443 1.87516 14.8716C1.87516 15.6919 2.25976 16.3675 2.93281 16.8017C3.36549 17.0913 3.84624 17.3808 4.32699 17.6221C5.72117 18.3459 6.0577 19.8417 5.38464 21.1446C4.51929 22.7369 5.04812 23.9915 6.68267 24.7154C12.1152 27.1763 17.8361 28.6722 23.7974 29.0582C31.9702 29.6372 39.8545 28.2379 47.4023 24.9084C49.3734 24.0398 49.8061 24.1846 50.7676 26.0665C51.5849 27.6106 51.3445 28.2379 49.758 28.9617C42.8352 32.1464 35.5758 33.8353 27.98 33.9318C20.6725 34.0283 13.6055 32.6772 6.8269 29.8785C6.18622 29.6029 5.52619 29.3662 4.87136 29.1313C4.49431 28.9961 4.11899 28.8615 3.75009 28.7204C3.26934 29.0099 2.78858 29.2874 2.30783 29.5648C1.82708 29.8423 1.34633 30.1198 0.865577 30.4093C0.0482995 30.8918 -0.144 31.5191 0.0963754 32.4359C0.336751 33.3528 1.05788 33.787 1.82708 34.1731C11.2979 38.6607 21.2494 40.6391 31.7298 39.8187C38.9892 39.288 45.8639 37.4061 52.4502 34.3178C54.6617 33.3045 54.9501 32.4359 53.9886 30.2163C53.9886 30.1921 53.9766 30.1801 53.9646 30.168C53.9526 30.156 53.9406 30.1439 53.9406 30.1198C53.5079 29.0099 53.7963 27.9483 54.7578 27.2728C54.997 27.0928 55.2548 26.95 55.508 26.8098C55.662 26.7246 55.8143 26.6402 55.9597 26.549C56.0559 26.4846 56.1574 26.4257 56.2589 26.3667C56.4618 26.2487 56.6648 26.1308 56.8251 25.9699C58.075 24.9084 57.9308 23.4125 56.4885 22.6404C55.9233 22.312 55.3395 22.0019 54.726 21.6761Z" fill="#F6F6F9"/>
<path d="M189.87 21.7596H194.625V31.1081H195.646L199.997 26.9711H206.364L199.783 32.8811L207.251 39.6777H200.938L195.834 34.5736H194.625V39.6777H189.87V21.7596Z" fill="#F6F6F9"/>
<path d="M173.815 26.9711H178.301V28.8784H178.543C179.429 27.2666 180.772 26.6487 183.432 26.6487C187.273 26.6487 188.563 27.9382 188.563 31.7528V32.6125H184.077C184.077 30.732 183.539 30.2216 181.578 30.2216C180.504 30.2216 179.617 30.544 179.161 31.135C178.704 31.7528 178.569 32.4513 178.569 34.4123V39.6776H173.815V26.9711Z" fill="#F6F6F9"/>
<path d="M163.052 26.6487C167.403 26.6487 169.23 26.9442 170.412 27.8039C171.675 28.7441 172.051 29.8992 172.051 33.096C172.051 36.5883 171.729 37.7972 170.573 38.7374C169.365 39.7313 167.78 40 163.078 40C158.324 40 156.739 39.7313 155.53 38.7374C154.348 37.7703 154.052 36.5883 154.052 32.908C154.052 29.9261 154.428 28.7172 155.691 27.8039C156.873 26.9442 158.727 26.6487 163.052 26.6487ZM163.078 30.2216C159.452 30.2216 158.807 30.7052 158.807 33.4184C158.807 35.0839 159.022 35.6481 159.801 35.9973C160.419 36.2928 161.493 36.4271 163.078 36.4271C166.678 36.4271 167.296 35.9704 167.296 33.2841C167.296 31.6185 167.027 30.9738 166.221 30.6246C165.63 30.3559 164.475 30.2216 163.078 30.2216Z" fill="#F6F6F9"/>
<path d="M126.457 26.9711H131.48L134.382 36.2122L137.767 26.9711H142.28L145.691 36.0511L148.673 26.9711H153.724L149.022 39.6776H142.548L140.05 32.2095L137.498 39.6776H131.158L126.457 26.9711Z" fill="#F6F6F9"/>
<path d="M113.3 24.043H118.055V26.9711H125.577V30.3828H118.055V34.09C118.055 35.4332 118.082 35.6212 118.27 35.9704C118.511 36.4271 118.995 36.6152 119.935 36.6152C120.902 36.6152 121.44 36.4271 121.654 35.9704C121.816 35.6749 121.842 35.5675 121.842 34.2512H126.194C126.141 36.6689 125.953 37.4479 125.227 38.3882C124.26 39.597 122.81 40 119.532 40C116.497 40 115.261 39.7314 114.321 38.818C113.649 38.1733 113.407 37.4748 113.327 36.1316C113.3 35.7287 113.3 35.7287 113.3 34.09V30.3828H110.802V26.9711H113.3V24.043Z" fill="#F6F6F9"/>
<path d="M105.022 35.6212H109.75C109.401 39.1404 107.654 40 100.858 40C97.1776 40 95.4315 39.6776 94.2764 38.818C93.0406 37.8778 92.6646 36.6152 92.6646 33.3647C92.6646 29.953 93.0406 28.6904 94.3838 27.7502C95.6196 26.8905 97.2314 26.6219 101.342 26.6219C105.505 26.6219 107.01 26.8637 108.165 27.7233C109.401 28.6367 109.857 30.0873 109.857 33.0692C109.857 33.2304 109.857 33.8214 109.83 34.3586H97.4194C97.4194 35.6481 97.5537 36.0779 98.0104 36.4271C98.5208 36.8032 99.5148 36.9644 101.234 36.9644C104.27 36.9644 104.834 36.7495 105.022 35.6212ZM97.4194 31.7528H105.076C105.049 30.7589 104.995 30.5171 104.699 30.2216C104.27 29.7649 103.303 29.5769 101.422 29.5769C98.2253 29.5769 97.4731 29.9798 97.4194 31.7528Z" fill="#F6F6F9"/>
<path d="M65.761 21.7596H75.3245L84.6999 35.1108H85.264L85.1297 21.7596H90.6905V39.6777H81.2076L71.7784 26.2995H71.1874L71.3218 39.6777H65.761V21.7596Z" fill="#F6F6F9"/>
<path d="M242.724 14.1303H247.452C247.103 17.6494 245.357 18.5091 238.56 18.5091C234.88 18.5091 233.134 18.1867 231.979 17.3271C230.743 16.3868 230.367 15.1242 230.367 11.8737C230.367 8.46205 230.743 7.19945 232.086 6.25923C233.322 5.39959 234.934 5.13095 239.044 5.13095C243.208 5.13095 244.712 5.37272 245.867 6.23236C247.103 7.14573 247.56 8.59636 247.56 11.5782C247.56 11.7394 247.56 12.3304 247.533 12.8677H235.122C235.122 14.1571 235.256 14.587 235.713 14.9362C236.223 15.3123 237.217 15.4735 238.937 15.4735C241.972 15.4735 242.536 15.2586 242.724 14.1303ZM235.122 10.2619H242.778C242.751 9.26796 242.697 9.02618 242.402 8.73068C241.972 8.274 241.005 8.08595 239.125 8.08595C235.928 8.08595 235.176 8.48891 235.122 10.2619Z" fill="#F6F6F9"/>
<path d="M214.504 5.4802H218.99V7.38752H219.232C220.118 5.7757 221.461 5.15784 224.121 5.15784C227.962 5.15784 229.252 6.44729 229.252 10.2619V11.1216H224.766C224.766 9.24111 224.228 8.7307 222.267 8.7307C221.193 8.7307 220.306 9.05307 219.85 9.64407C219.393 10.2619 219.259 10.9604 219.259 12.9214V18.1867H214.504V5.4802Z" fill="#F6F6F9"/>
<path d="M203.741 5.15784C208.092 5.15784 209.919 5.45334 211.101 6.31297C212.364 7.2532 212.74 8.40834 212.74 11.6051C212.74 15.0974 212.418 16.3063 211.262 17.2465C210.054 18.2404 208.469 18.5091 203.767 18.5091C199.013 18.5091 197.428 18.2404 196.219 17.2465C195.037 16.2794 194.741 15.0974 194.741 11.4171C194.741 8.4352 195.117 7.22634 196.38 6.31297C197.562 5.45334 199.415 5.15784 203.741 5.15784ZM203.767 8.7307C200.141 8.7307 199.496 9.21425 199.496 11.9275C199.496 13.593 199.711 14.1572 200.49 14.5064C201.108 14.8019 202.182 14.9362 203.767 14.9362C207.367 14.9362 207.985 14.4795 207.985 11.7932C207.985 10.1276 207.716 9.48289 206.91 9.13366C206.319 8.86502 205.164 8.7307 203.767 8.7307Z" fill="#F6F6F9"/>
<path d="M175.808 0.268646H180.563V7.41438H180.778C181.557 5.80256 183.115 5.13097 186.124 5.13097C188.945 5.13097 190.53 5.58765 191.631 6.71593C192.733 7.8442 193.028 8.99934 193.028 11.9812V18.1867H188.273V11.9812C188.273 9.21425 187.709 8.70384 184.593 8.70384C181.235 8.70384 180.563 9.37543 180.563 12.7603V18.1867H175.808V0.268646Z" fill="#F6F6F9"/>
<path d="M156.08 23.4789V5.4802H160.567V7.19948H160.808C161.641 5.64138 162.984 5.15784 166.638 5.15784C169.915 5.15784 171.608 5.53393 172.682 6.55475C173.703 7.46811 173.998 8.70384 173.998 11.9006C173.998 17.4345 172.763 18.5091 166.423 18.5091C163.199 18.5091 161.99 18.0793 161.05 16.548H160.835V23.4789H156.08ZM165.214 8.7307C161.399 8.7307 160.835 9.13366 160.835 11.9812C160.835 14.4527 161.534 14.9362 165.053 14.9362C166.826 14.9362 167.954 14.775 168.465 14.3989C169.056 14.0228 169.244 13.3513 169.244 11.632C169.244 9.18739 168.599 8.7307 165.214 8.7307Z" fill="#F6F6F9"/>
<path d="M142.106 9.456H137.378C137.512 7.62927 138.05 6.71591 139.473 5.96372C140.575 5.37272 142.751 5.13095 146.7 5.13095C150.891 5.13095 151.858 5.319 152.932 6.39354C153.738 7.25318 154.007 8.22027 154.007 10.5305V18.1867H149.44V16.4406H149.225C148.849 17.2465 148.392 17.6763 147.559 18.0524C146.754 18.4016 145.572 18.5091 142.402 18.5091C139.85 18.5091 138.641 18.2136 137.781 17.4345C137.163 16.8435 136.868 15.9033 136.868 14.5332C136.868 12.2498 137.727 10.9872 139.581 10.4768C140.709 10.1813 141.972 10.1007 145.464 10.1007C147.667 10.1007 148.312 10.2888 149.037 11.0947H149.252V10.4231C149.252 8.46205 148.876 8.19341 146.001 8.19341C142.59 8.19341 142.267 8.30086 142.106 9.456ZM145.303 12.7871C143.691 12.7871 142.697 12.8946 142.321 13.0826C141.864 13.2975 141.623 13.6736 141.623 14.1303C141.623 15.178 142.348 15.4735 144.9 15.4735C148.231 15.4735 149.171 15.1511 149.171 14.0228C149.171 13.5124 148.903 13.1363 148.392 12.9483C148.07 12.814 147.371 12.7871 145.303 12.7871Z" fill="#F6F6F9"/>
<path d="M107.469 5.4802H111.955V7.38752H112.197C112.895 5.85629 114.507 5.15784 117.328 5.15784C120.39 5.15784 122.083 5.93688 123.103 7.81734C123.909 5.91002 125.467 5.15784 128.584 5.15784C131.216 5.15784 132.774 5.64138 133.876 6.79652C134.977 7.92479 135.219 8.97248 135.219 12.2498V18.1867H130.464V12.2498C130.437 10.1276 130.383 9.88584 129.927 9.42916C129.443 8.94561 128.637 8.7307 127.24 8.7307C125.817 8.7307 124.93 8.97248 124.42 9.53661C123.882 10.1276 123.721 10.8798 123.721 12.9483V18.1867H118.966V12.2498C118.966 10.2619 118.913 9.9127 118.456 9.42916C118.026 8.94561 117.193 8.7307 115.823 8.7307C114.4 8.7307 113.459 8.97248 112.922 9.50975C112.385 10.047 112.224 10.8529 112.224 12.9483V18.1867H107.469V5.4802Z" fill="#F6F6F9"/>
<path d="M100.851 14.1303H105.579C105.229 17.6494 103.483 18.5091 96.6868 18.5091C93.0064 18.5091 91.2603 18.1867 90.1052 17.3271C88.8694 16.3868 88.4933 15.1242 88.4933 11.8737C88.4933 8.46205 88.8694 7.19945 90.2126 6.25923C91.4483 5.39959 93.0602 5.13095 97.1703 5.13095C101.334 5.13095 102.839 5.37272 103.994 6.23236C105.229 7.14573 105.686 8.59636 105.686 11.5782C105.686 11.7394 105.686 12.3304 105.659 12.8677H93.2482C93.2482 14.1571 93.3825 14.587 93.8392 14.9362C94.3496 15.3123 95.3436 15.4735 97.0629 15.4735C100.098 15.4735 100.663 15.2586 100.851 14.1303ZM93.2482 10.2619H100.904C100.877 9.26796 100.824 9.02618 100.528 8.73068C100.098 8.274 99.1314 8.08595 97.2509 8.08595C94.0541 8.08595 93.3019 8.48891 93.2482 10.2619Z" fill="#F6F6F9"/>
<path d="M65.1163 12.2498H70.4084C70.4084 13.2438 70.5159 13.6736 70.9457 13.9422C71.5367 14.2915 71.5904 14.2915 75.8886 14.3183C81.7449 14.2915 81.7449 14.2915 81.7449 12.7334C81.7449 11.6588 81.3419 11.3902 79.5958 11.3633C78.9779 11.3633 77.2049 11.2827 75.2976 11.2021C73.3097 11.0947 71.5367 11.0141 70.9457 11.0141C68.3399 10.9335 67.0773 10.5574 66.2714 9.64406C65.5998 8.83815 65.2775 7.68301 65.2775 5.88314C65.2775 3.22364 65.8953 1.61182 67.1579 0.913366C68.5548 0.161183 70.1129 0 76.5871 0C81.5837 0 83.4642 0.241773 84.7536 0.993956C85.9087 1.71927 86.3923 2.87441 86.3923 5.07723C86.3923 5.18469 86.3923 5.56078 86.3654 5.91001H81.1002C81.0733 5.02351 80.9927 4.78173 80.6972 4.5131C80.2674 4.16387 79.6495 4.11014 75.5394 4.11014C70.9457 4.11014 70.5696 4.2176 70.5696 5.53392C70.5696 6.17864 70.8114 6.52787 71.3218 6.68905C71.8053 6.82337 73.2022 6.90396 77.1243 7.01142C82.9 7.1726 84.1089 7.33378 85.2372 8.00537C86.5535 8.78442 87.037 10.0201 87.037 12.5722C87.037 15.6078 86.3386 17.139 84.5924 17.8375C83.491 18.321 81.3419 18.4553 75.7543 18.4553C70.3816 18.4553 68.1787 18.2136 66.8893 17.4882C65.5461 16.7361 65.1163 15.6615 65.1163 13.1095V12.2498Z" fill="#F6F6F9"/>
</svg>
