<svg width="328" height="327" viewBox="0 0 328 327" fill="none" xmlns="http://www.w3.org/2000/svg">
<path d="M311.336 175.064L315.137 164.959L316.92 160.218L322.203 146.174L324.568 139.89L327.468 132.187L327.852 132.064L327.61 131.808L327.796 131.315L327.297 131.475L314.991 118.391L302.967 105.607L302.721 105.345L291.238 93.1332L290.58 92.4335L290.331 92.1689L277.973 79.0298L271.54 72.1893L265.651 65.9271L253.624 53.1299L253.461 52.9572L252.804 52.2577L240.924 39.6268L240.81 39.5057L240.549 39.2282L237.28 35.7521L228.59 26.51L216.406 13.5512L216.14 13.2683L210.257 7.01303L204.553 0.947617L204.699 0.507719L204.254 0.629533L203.986 0.343994L203.855 0.738775L192.328 3.8986L189.258 4.74006L188.534 4.93839L188.416 4.97076L172.847 9.2401L172.727 9.273L170.565 9.86549L156.759 13.6486L141.728 17.7678L126.195 22.0243L125.89 22.1079L125.765 22.142L108.884 26.7705L93.041 31.1121L86.2677 32.9683L76.2894 35.7025L63.8614 39.1078L60.9963 39.8928L60.7168 39.9693L59.787 40.2241L43.9292 44.5708L43.6428 44.2591L43.5192 44.6832L43.1381 44.7877L43.4043 45.0774L39.1932 59.5335L39.0824 59.9139L38.8289 60.7839L38.7893 60.9217L34.6474 75.1621L32.3603 83.0067L30.4044 89.715L30.2793 90.1435L30.2086 90.3865L30.1653 90.5348L30.038 90.9717L25.8944 105.212L21.518 120.233L21.3893 120.674L17.486 134.081L17.1452 135.251L17.1173 135.347L13.0123 149.452L9.04873 163.062L4.87722 177.384L4.83038 177.545L4.74983 177.821L0.614603 192.029L0.255997 192.14L0.502688 192.414L0.370323 192.869L0.794362 192.738L6.02915 198.553L12.2919 205.509L24.3087 218.858L36.0217 231.871L36.2615 232.138L36.4142 232.307L36.8305 232.77L37.0737 233.04L48.3767 245.589L56.5251 254.644L60.0314 258.541L60.3047 258.845L60.8326 259.432L64.2929 263.274L72.4337 272.314L84.1779 285.364L84.617 285.852L84.7096 285.955L96.8318 299.42L97.0911 299.708L108.984 312.915L120.875 326.123L120.704 326.631L121.181 326.462L121.434 326.744L121.577 326.323L128.442 323.9L137.07 320.856L152.834 315.297L152.886 315.279L153.579 315.035L161.903 312.097L168.859 309.642L172.64 308.308L184.358 304.173L196.566 299.866L198.852 299.059L199.212 298.932L199.347 298.884L199.882 298.696L200.093 298.621L208.784 295.552L214.986 293.362L230.113 288.025L230.472 287.898L244.227 283.045L248.125 281.669L259.331 277.715L259.619 277.613L261.291 277.023L274.391 272.402L274.628 272.66L274.776 272.266L275.139 272.138L274.916 271.895L280.196 257.858L284.84 245.513L285.109 244.798L285.322 244.233L289.514 233.082L290.15 231.389L295.688 216.667L298.428 209.384L300.603 203.603L305.746 189.936L305.815 189.754L306.223 188.669L309.666 179.508L311.336 175.064ZM230.438 287.136L233.756 278.048L235.087 274.403L245.235 270.856L249.239 269.456L244.555 282.155L230.438 287.136ZM200.054 297.861L202.988 289.647L204.628 285.056L219.031 280.019L214.418 292.788L200.054 297.861ZM153.532 314.277L157.992 301.363L172.786 296.186L168.287 309.069L153.532 314.277ZM97.353 298.909L101.661 285.769L113.309 298.684L108.951 311.789L97.353 298.909ZM73.1454 272.015L77.3495 258.813L79.7735 261.501L88.9261 271.65L88.4736 273.05L84.6676 284.818L73.1454 272.015ZM37.0786 231.955L41.1281 218.662L52.6009 231.379L49.1874 242.42L48.5018 244.638L37.0786 231.955ZM1.3156 192.227L5.21103 178.843L16.5798 191.445L12.63 204.795L1.3156 192.227ZM30.7408 91.1651L34.5573 95.3436L42.4382 103.973L38.2827 118.03L26.6399 105.257L30.7408 91.1651ZM35.1222 76.1359L43.5668 85.364L46.8724 88.9765L45.5894 93.3158L42.6798 103.155L30.9796 90.345L35.1222 76.1359ZM60.344 40.8291L72.1989 53.7012L66.67 55.2408L56.37 58.1087L47.3172 48.2576L44.4851 45.1758L60.344 40.8291ZM94.0067 31.6047L109.444 27.3743L121.207 40.0581L105.799 44.3438L99.34 37.3663L94.0067 31.6047ZM173.812 9.7326L188.586 5.68164L200.202 18.062L185.458 22.1678L173.812 9.7326ZM204.024 1.44967L215.613 13.7719L200.995 17.8411L199.953 16.7302L189.382 5.46361L204.024 1.44967ZM240.022 39.7318L225.457 43.9113L216.25 34.0979L213.773 31.4578L228.363 27.3333L240.022 39.7318ZM252.276 52.7617L240.281 56.2607L237.74 57.0018L230.281 49.0523L226.018 44.5099L240.584 40.3304L252.276 52.7617ZM310.659 174.794L296.517 179.456L301.526 166.015L315.703 161.384L310.659 174.794ZM284.426 244.543L270.474 249.377L275.27 236.5L282.443 234.036L289.257 231.696L284.426 244.543ZM279.3 258.172L265.39 263.034L266.432 260.233L270.143 250.264L274.483 248.76L284.092 245.431L279.3 258.172ZM169.167 308.759L173.665 295.878L188.33 290.754L183.788 303.6L169.167 308.759ZM152.654 314.586L137.766 319.836L142.193 306.884L142.722 306.699L157.115 301.669L152.654 314.586ZM85.2309 285.444L89.4897 272.275L94.4872 277.815L101.099 285.146L98.8003 292.157L96.7909 298.285L85.2309 285.444ZM13.2015 205.43L17.1517 192.079L25.5015 201.336L28.5537 204.719L27.6913 207.592L24.554 218.04L13.2015 205.43ZM26.4008 106.078L30.6597 110.75L38.0412 118.848L36.5459 123.907L33.9225 132.784L22.3319 120.044L26.4008 106.078ZM125.533 22.963L137.273 35.5844L121.997 39.838L110.237 27.157L125.533 22.963ZM216.178 14.373L227.799 26.7336L213.21 30.8577L201.559 18.4421L216.178 14.373ZM316.033 160.508L301.852 165.141L302.594 163.149L306.904 151.577L321.119 146.984L316.033 160.508ZM290.013 194.84L285.088 208.058L270.898 212.834L275.784 199.581L276.568 199.32L290.013 194.84ZM77.6057 258.008L81.8416 244.695L92.9502 256.984L93.4756 257.565L93.105 258.712L89.1852 270.848L77.6057 258.008ZM142.493 306.006L146.952 292.941L157.188 289.395L161.922 287.755L157.419 300.789L142.493 306.006ZM65.4943 244.585L69.6803 231.237L73.7712 235.764L81.2762 244.069L77.0407 257.382L65.4943 244.585ZM53.4195 231.198L57.5556 217.822L63.2033 224.071L69.1135 230.61L64.9277 243.956L53.4195 231.198ZM29.3695 204.535L33.4012 191.097L44.8931 203.808L43.7208 207.655L40.8068 217.217L29.3695 204.535ZM34.2538 134.232L45.8695 147.008L41.7328 160.794L30.1667 148.048L34.2538 134.232ZM47.4464 89.6039L50.71 93.1724L59.2291 102.488L54.9869 116.633L43.2537 103.784L47.4464 89.6039ZM90.0213 49.5L105.567 45.1665L117.4 57.9517L115.147 58.5894L101.879 62.3451L90.0213 49.5ZM153.765 31.7493L165.505 44.3506L152.405 48.0546L150.395 48.6229L138.625 35.9662L153.765 31.7493ZM169.56 27.3536L181.273 39.8923L179.987 40.2559L166.294 44.1274L154.556 31.5288L169.56 27.3536ZM185.228 22.9898L196.909 35.471L182.062 39.6691L170.352 27.1331L185.228 22.9898ZM300.967 165.43L286.658 170.1L291.672 156.494L306.021 151.863L300.967 165.43ZM284.759 208.939L279.877 222.044L265.73 226.854L270.574 213.714L275.284 212.128L284.759 208.939ZM274.378 236.806L269.581 249.686L255.511 254.562L260.273 241.648L270.123 238.267L274.378 236.806ZM101.923 284.97L106.269 271.719L114.882 281.246L117.974 284.666L116.557 288.925L113.574 297.888L101.923 284.97ZM21.3763 177.788L32.83 190.465L30.3043 198.884L28.7988 203.903L17.3944 191.259L21.3763 177.788ZM106.357 44.9468L121.766 40.6607L133.571 53.3828L118.188 57.7291L113.613 52.787L106.357 44.9468ZM122.556 40.4406L137.833 36.1865L149.607 48.8459L137.602 52.2427L134.359 53.1601L126.644 44.8454L122.556 40.4406ZM249.272 70.3602L234.633 74.6973L228.724 68.384L222.846 62.1051L237.515 57.8279L249.272 70.3602ZM311.384 136.558L296.884 141.191L284.918 128.408L299.443 123.835L311.384 136.558ZM64.3304 88.0266L69.838 94.0308L76.2141 100.982L71.8749 115.226L60.046 102.3L64.3304 88.0266ZM285.453 171.261L280.475 184.749L266.081 189.496L269.772 179.375L271.014 175.969L283.128 172.019L285.453 171.261ZM264.842 227.156L250.562 232.008L254.17 222.124L255.373 218.83L261.438 216.788L269.687 214.012L264.842 227.156ZM57.8061 217.012L61.9744 203.52L73.5893 216.345L69.3669 229.803L57.8061 217.012ZM46.4413 147.637L50.4688 152.067L58.0953 160.456L57.6591 161.89L53.9088 174.214L42.3043 161.424L46.4413 147.637ZM55.3149 118.074L60.6859 123.959L67.0784 130.964L62.8183 144.959L51.1042 132.104L55.3149 118.074ZM117.957 58.5535L129.827 71.3814L114.336 75.8302L110.35 71.516L102.435 62.9469L117.957 58.5535ZM134.917 53.7612L150.165 49.4469L161.971 62.1492L146.753 66.5189L134.917 53.7612ZM296.115 141.437L281.483 146.108L269.485 133.261L284.147 128.651L296.115 141.437ZM131.27 297.603L134.691 287.462L135.624 284.698L135.728 284.388L150.881 279.187L146.378 292.367L131.27 297.603ZM118.238 283.871L106.531 270.921L110.913 257.554L114.259 261.249L122.67 270.538L122.402 271.345L118.238 283.871ZM86.6314 229.657L90.9461 216.111L98.4952 224.433L102.685 229.051L98.3203 242.567L86.6314 229.657ZM55.5593 117.26L59.802 103.114L63.8155 107.499L71.6279 116.036L67.3256 130.153L55.5593 117.26ZM254.809 218.249L240.362 223.111L243.402 214.693L245.178 209.777L250.905 207.868L259.663 204.95L254.809 218.249ZM230.222 251.188L231.976 246.332L234.956 238.084L249.356 233.19L244.587 246.259L230.222 251.188ZM58.6658 161.084L66.081 169.238L70.3578 173.942L66.3219 187L66.1162 187.665L54.479 174.842L58.6658 161.084ZM163.315 62.5232L178.402 58.1907L190.214 70.8632L188.848 71.2617L175.156 75.256L170.271 70.0029L163.315 62.5232ZM136.023 283.514L140.383 270.598L140.524 270.181L155.725 265.014L151.179 278.312L136.023 283.514ZM81.9089 85.9009L97.6861 81.3726L109.655 94.3651L93.9075 98.9584L93.632 98.6587L87.9194 92.4419L81.9089 85.9009ZM114.89 76.4309L130.383 71.9818L142.286 84.8435L126.824 89.3577L121.907 84.0323L114.89 76.4309ZM266.442 150.911L265.98 151.059L265.957 151.066L253.926 138.157L268.714 133.504L280.715 146.353L266.442 150.911ZM270.452 175.384L255.887 180.14L259.206 170.952L260.829 166.458L275.434 161.741L270.452 175.384ZM249.477 195.744L244.613 209.195L230 214.066L234.82 200.576L249.477 195.744ZM70.9267 174.567L82.6516 187.464L80.848 193.21L78.3551 201.153L66.685 188.292L70.9267 174.567ZM131.168 71.7563L146.524 67.3443L158.4 80.1477L148.668 82.9839L143.069 84.6153L137.844 78.9702L131.168 71.7563ZM190.771 71.4613L202.62 84.1773L187.591 88.6305L175.712 75.8548L190.771 71.4613ZM260.266 165.872L245.519 170.632L247.26 165.765L250.472 156.783L250.506 156.773L250.848 156.663L265.254 152.057L260.266 165.872ZM103.508 228.873L107.914 215.244L119.748 228.261L118.757 231.287L115.292 241.86L103.508 228.873ZM89.2722 115.226L92.7245 118.992L101.227 128.268L96.7776 142.444L84.8778 129.436L89.2722 115.226ZM215.064 97.5282L200.064 102.042L188.477 89.583L188.147 89.2279L203.177 84.7741L215.064 97.5282ZM250.299 156.072L238.236 143.095L253.155 138.4L265.189 151.311L250.299 156.072ZM78.9224 201.778L83.219 188.088L94.982 201.023L90.6358 214.684L78.9224 201.778ZM106.49 112.654L94.4588 99.5586L110.207 94.9647L122.208 107.995L109.547 111.748L106.49 112.654ZM145.655 254.985L148.282 247.205L150.097 241.829L150.165 241.628L150.236 241.416L153.491 240.331L165.524 236.321L160.903 249.854L145.655 254.985ZM120.573 228.084L125.071 214.367L134.244 224.431L137.006 227.46L136.88 227.84L132.453 241.142L120.573 228.084ZM83.472 187.282L87.8055 173.47L99.6258 186.442L95.2377 200.22L83.472 187.282ZM92.4337 158.73L104.306 171.735L103.425 174.504L99.8812 185.639L88.0583 172.664L92.4337 158.73ZM107.04 113.253L122.76 108.593L134.804 121.667L119.114 126.387L118.995 126.257L118.844 126.093L108.944 115.324L107.04 113.253ZM126.595 90.1852L138.569 103.152L122.987 107.764L113.67 97.6486L110.989 94.7367L126.595 90.1852ZM142.841 85.4426L154.782 98.3468L139.348 102.921L127.377 89.9569L142.841 85.4426ZM174.929 76.0831L186.811 88.8619L184.934 89.4176L171.645 93.352L162.877 83.9013L159.739 80.5183L174.929 76.0831ZM212.345 116.322L224.335 129.22L209.251 133.892L197.236 120.938L212.345 116.322ZM233.943 200.865L229.122 214.359L214.371 219.273L219.152 205.745L220.248 205.383L233.943 200.865ZM144.928 254.862L133.015 241.76L137.568 228.078L149.536 241.213L144.928 254.862ZM97.0938 143.87L97.7896 144.63L109.029 156.912L106.35 165.321L104.562 170.933L92.6865 157.925L97.0938 143.87ZM192.73 239.142L177.755 244.181L180.437 236.418L182.417 230.689L193.87 226.872L197.432 225.685L192.73 239.142ZM125.332 213.571L129.873 199.734L139.507 210.286L141.86 212.864L137.732 225.277L137.27 226.667L125.332 213.571ZM123.16 152.187L126.386 155.706L121.827 169.82L109.851 156.73L114.356 142.582L123.16 152.187ZM203.657 210.086L208.442 196.392L223.41 191.508L218.585 205.163L203.657 210.086ZM109.596 157.532L121.569 170.618L117.047 184.606L105.129 171.554L109.596 157.532ZM187.723 215.341L190.371 207.682L192.47 201.608L198.176 199.744L207.571 196.676L202.784 210.374L187.723 215.341ZM129.569 198.32L117.613 185.225L122.135 171.237L134.141 184.361L130.953 194.097L129.569 198.32ZM130.146 159.807L139.021 169.486L134.402 183.566L122.393 170.438L126.953 156.324L130.146 159.807ZM132.318 140.757L147.98 135.977L160.1 149.132L153.044 151.318L144.463 153.978L135.346 144.054L132.318 140.757ZM144.503 155.099L156.673 168.339L151.956 182.511L139.847 169.307L144.503 155.099ZM217.879 167.188L213.007 181.127L197.853 186.022L202.686 172.042L203.059 171.923L206.498 170.824L217.879 167.188ZM176.652 206.001L181.399 192.102L196.687 187.165L191.901 201.025L176.652 206.001ZM139.586 170.102L149.631 181.055L151.693 183.303L147.019 197.354L134.967 184.183L139.586 170.102ZM157.236 168.952L169.439 182.234L164.668 196.373L152.52 183.126L157.236 168.952ZM196.986 186.302L181.694 191.239L186.484 177.216L201.82 172.319L196.986 186.302ZM165.392 196.504L167.073 191.522L170.139 182.438L185.619 177.492L180.828 191.519L165.392 196.504ZM185.543 176.75L169.963 181.727L159.411 170.241L157.743 168.426L173.347 163.514L185.543 176.75ZM147.582 197.97L152.256 183.918L159.522 191.841L164.401 197.162L164.299 197.464L164.239 197.644L159.672 211.179L147.582 197.97ZM163.619 201.758L165.004 197.654L165.102 197.365L180.534 192.381L175.785 206.284L160.398 211.308L163.619 201.758ZM186.777 176.356L186.309 176.505L175.298 164.555L174.116 163.272L189.583 158.408L201.746 171.576L186.777 176.356ZM189.035 157.814L173.569 162.678L161.419 149.488L176.915 144.684L189.035 157.814ZM172.8 162.92L171.414 163.356L157.197 167.831L156.936 167.547L145.01 154.573L160.648 149.727L172.8 162.92ZM176.366 144.09L160.871 148.893L153.264 140.637L148.754 135.741L164.278 130.997L176.366 144.09ZM130.134 198.938L134.706 184.979L146.755 198.147L143.042 209.311L142.123 212.071L130.134 198.938ZM142.686 212.688L147.318 198.762L159.406 211.969L154.714 225.86L142.686 212.688ZM207.875 195.809L192.769 200.742L197.555 186.886L201.222 185.701L212.704 181.993L207.875 195.809ZM213.877 180.847L218.485 167.663L218.748 166.91L233.807 162.104L228.896 176L213.877 180.847ZM202.91 171.204L202.512 171.331L200.513 169.167L190.352 158.165L205.682 153.339L217.807 166.444L202.91 171.204ZM205.133 152.746L189.804 157.572L183.292 150.518L177.686 144.445L193.04 139.683L205.133 152.746ZM171.652 220.642L174.303 212.878L176.357 206.866L191.602 201.891L186.853 215.628L171.652 220.642ZM192.49 139.089L177.138 143.85L167.963 133.914L165.052 130.761L180.435 126.065L192.49 139.089ZM164.502 130.165L155.241 120.136L152.455 117.119L167.872 112.484L179.884 125.47L164.502 130.165ZM163.728 130.402L148.205 135.145L136.13 122.031L151.678 117.353L163.728 130.402ZM155.44 225.986L159.968 212.582L160.106 212.172L175.49 207.149L170.784 220.929L155.44 225.986ZM223.717 190.639L208.746 195.524L209.228 194.144L213.574 181.712L228.59 176.866L223.717 190.639ZM233.737 161.359L219.05 166.047L218.598 166.191L218.574 166.199L216.074 163.497L206.451 153.097L221.639 148.317L233.737 161.359ZM221.089 147.724L205.902 152.503L205.137 151.677L193.812 139.444L209.029 134.725L221.089 147.724ZM167.32 111.887L151.904 116.522L139.901 103.52L155.336 98.9447L167.32 111.887ZM135.354 122.264L147.43 135.381L135.802 138.931L131.77 140.161L131.626 140.003L131.503 139.87L119.663 126.984L135.354 122.264ZM131.812 141.284L143.692 154.217L143.871 154.412L143.938 154.485L139.282 168.691L127.21 155.526L131.812 141.284ZM137.832 227.284L142.422 213.48L154.447 226.649L154.442 226.665L154.282 227.137L149.802 240.423L137.832 227.284ZM182.718 229.819L187.423 216.209L198.068 212.699L202.481 211.243L197.736 224.813L182.718 229.819ZM196.461 121.175L208.478 134.131L200.017 136.755L193.262 138.85L182.731 127.472L181.21 125.829L196.461 121.175ZM139.121 103.75L151.128 116.756L149.824 117.148L135.58 121.433L123.539 108.363L139.121 103.75ZM152.852 233.659L155.148 226.852L166.369 223.153L170.488 221.795L165.82 235.452L150.529 240.548L152.852 233.659ZM171.356 221.509L186.553 216.496L181.847 230.109L166.689 235.162L171.356 221.509ZM224.591 190.354L228.05 180.578L229.462 176.585L244.334 171.782L239.428 185.512L224.591 190.354ZM244.645 170.915L229.769 175.718L234.678 161.826L249.598 157.062L244.645 170.915ZM236.914 142.745L221.859 147.482L215.43 140.552L209.802 134.486L224.887 129.814L236.914 142.745ZM183.366 107.061L168.097 111.653L163.375 106.553L156.116 98.7135L171.419 94.1809L183.366 107.061ZM119.157 127.511L131.245 140.668L128.82 148.175L126.644 154.908L114.611 141.781L119.157 127.511ZM198.61 224.522L203.353 210.956L210.482 208.605L218.277 206.033L213.495 219.565L198.61 224.522ZM234.254 199.993L219.459 204.874L224.284 191.223L239.118 186.382L234.254 199.993ZM234.505 161.114L222.409 148.074L237.465 143.337L249.531 156.317L234.505 161.114ZM180.659 125.233L168.65 112.25L183.919 107.657L195.909 120.58L180.659 125.233ZM158.956 80.7466L170.865 93.5831L155.562 98.1157L143.623 85.2143L158.956 80.7466ZM101.796 128.888L113.788 141.964L109.284 156.111L97.3461 143.065L101.796 128.888ZM104.873 172.356L105.962 173.548L116.789 185.404L112.342 199.174L112.309 199.275L100.448 186.261L104.873 172.356ZM112.874 199.895L117.355 186.024L129.309 199.116L124.769 212.953L112.874 199.895ZM161.773 249.562L166.392 236.031L175.289 233.065L181.546 230.979L176.882 244.475L161.773 249.562ZM199.285 102.276L184.144 106.827L181.265 103.723L172.2 93.9497L187.366 89.4589L199.285 102.276ZM193.605 238.848L198.305 225.394L208.048 222.149L213.186 220.438L208.441 233.852L193.605 238.848ZM237.685 142.502L225.66 129.574L240.608 124.94L252.603 137.807L237.685 142.502ZM211.792 115.727L198.916 119.662L196.684 120.343L191.303 114.543L184.697 107.423L199.84 102.872L211.792 115.727ZM106.534 113.78L118.589 126.894L114.043 141.163L102.048 128.084L106.534 113.78ZM96.043 142.721L96.5252 143.248L92.1182 157.303L80.2758 144.333L84.628 130.244L96.043 142.721ZM86.9135 152.684L91.8656 158.108L90.4297 162.68L87.4904 172.041L75.7053 159.104L80.0259 145.141L86.9135 152.684ZM100.192 187.063L101.84 188.871L112.051 200.074L108.763 210.25L107.608 213.823L95.8038 200.842L100.192 187.063ZM112.616 200.694L115.248 203.584L124.507 213.749L120.009 227.464L108.172 214.444L112.616 200.694ZM132.751 242.553L144.661 255.652L144.495 256.146L140.09 269.189L128.235 256.12L132.751 242.553ZM140.818 269.31L145.333 255.94L145.362 255.854L154.404 252.812L160.606 250.725L156.023 264.141L140.818 269.31ZM172.833 258.427L175.71 250.1L177.453 245.053L192.425 240.016L187.761 253.35L172.833 258.427ZM209.318 233.556L214.062 220.146L228.809 215.233L224.027 228.609L209.318 233.556ZM240.304 185.226L245.209 171.5L259.953 166.741L255.008 180.427L240.304 185.226ZM226.343 128.597L225.108 128.981L213.12 116.085L228.098 111.511L240.055 124.346L226.343 128.597ZM75.4553 159.913L83.6254 168.881L87.2376 172.846L82.9044 186.658L71.1766 173.758L75.4553 159.913ZM115.855 242.48L120.312 228.88L132.189 241.935L129.931 248.718L127.673 255.501L115.855 242.48ZM156.894 263.845L161.476 250.432L176.581 245.347L171.96 258.724L156.894 263.845ZM188.636 253.052L189.109 251.701L193.299 239.721L203.844 236.17L208.132 234.726L203.435 248.027L188.636 253.052ZM219.854 242.443L222.877 233.989L224.593 229.189L239.164 224.285L234.391 237.505L219.854 242.443ZM239.481 223.408L224.906 228.312L229.688 214.94L244.297 210.07L239.481 223.408ZM227.543 110.916L212.567 115.49L211.218 114.039L200.618 102.638L215.619 98.1239L227.543 110.916ZM105.712 112.885L105.965 113.161L102.899 122.937L101.479 127.464L89.5217 114.419L93.9532 100.086L105.712 112.885ZM66.4346 189.101L75.5843 199.185L78.1021 201.96L78.0513 202.121L73.8424 215.538L62.2247 202.71L66.4346 189.101ZM235.131 199.704L239.993 186.096L254.694 181.298L249.792 194.872L235.131 199.704ZM253.374 137.565L241.381 124.7L256.198 120.107L268.161 132.912L253.374 137.565ZM215.842 97.2941L205.83 86.5517L203.958 84.5429L218.861 80.1316L230.716 92.8225L215.842 97.2941ZM203.401 83.9457L195.794 75.7814L191.555 71.2326L206.482 66.882L218.303 79.5348L203.401 83.9457ZM174.372 75.4849L159.183 79.9193L147.31 67.1189L162.529 62.7489L174.372 75.4849ZM82.0012 127.373L84.0581 129.621L79.7061 143.709L67.8966 130.778L72.1991 116.66L82.0012 127.373ZM67.6496 131.589L77.1582 142.001L79.4563 144.517L76.3197 154.654L75.1361 158.479L63.389 145.585L67.6496 131.589ZM74.4097 216.164L78.6695 202.585L90.3802 215.487L89.1968 219.202L86.0657 229.032L74.4097 216.164ZM91.202 215.307L95.5483 201.645L100.041 206.586L107.349 214.623L102.943 228.251L91.202 215.307ZM127.97 256.914L139.823 269.98L135.294 283.395L123.496 270.364L127.97 256.914ZM172.192 260.283L172.531 259.302L187.455 254.225L182.833 267.447L167.949 272.558L172.192 260.283ZM204.313 247.729L209.009 234.431L223.713 229.485L218.973 242.743L204.313 247.729ZM219.54 243.321L225.348 241.348L234.073 238.384L229.337 251.492L214.843 256.464L219.54 243.321ZM255.645 119.514L240.829 124.106L228.874 111.274L243.719 106.741L255.645 119.514ZM231.495 92.5882L225.698 86.3829L219.643 79.9001L234.409 75.5256L246.231 88.154L231.495 92.5882ZM114.105 76.6563L126.041 89.5856L110.436 94.137L98.4705 81.1475L114.105 76.6563ZM88.702 114.604L84.3079 128.814L72.4461 115.85L76.7854 101.605L88.702 114.604ZM63.1417 146.397L73.7311 158.02L74.886 159.288L70.6078 173.133L58.913 160.272L63.1417 146.397ZM103.249 229.673L111.308 238.555L115.031 242.657L113.889 246.139L110.612 256.135L98.8846 243.191L103.249 229.673ZM111.175 256.756L115.594 243.278L127.409 256.295L122.935 269.744L111.175 256.756ZM152.746 275.982L156.596 264.717L171.658 259.599L167.074 272.858L152.052 278.013L152.746 275.982ZM183.71 267.146L188.33 253.928L199.505 250.133L203.125 248.904L198.466 262.082L183.71 267.146ZM249.677 232.309L235.274 237.205L240.046 223.988L250.291 220.54L254.488 219.127L249.677 232.309ZM250.672 194.581L252.911 188.38L255.572 181.011L270.134 176.257L265.199 189.787L250.672 194.581ZM271.333 175.097L276.313 161.457L282.773 159.37L290.791 156.779L285.775 170.388L271.333 175.097ZM275.752 160.871L261.143 165.589L265.619 153.19L266.129 151.778L270.9 150.254L280.777 147.1L275.752 160.871ZM271.102 114.719L256.418 119.274L244.496 106.505L259.204 102.014L271.102 114.719ZM228.957 110.485L228.32 110.679L219.333 101.039L216.398 97.8899L231.272 93.418L243.164 106.147L228.957 110.485ZM194.139 53.6691L205.923 66.2838L190.998 70.6345L179.189 57.9645L194.139 53.6691ZM145.968 66.7443L130.612 71.1559L118.744 58.3305L134.129 53.9841L145.968 66.7443ZM81.4037 86.4292L93.3826 99.4651L88.9515 113.797L77.0323 100.795L81.4037 86.4292ZM54.2314 175.654L65.0334 187.557L65.866 188.475L61.6562 202.082L50.0762 189.292L54.2314 175.654ZM199.345 261.781L204.003 248.606L216.165 244.469L218.659 243.621L213.962 256.766L199.345 261.781ZM245.494 208.902L250.356 195.455L264.88 190.661L259.983 204.073L245.494 208.902ZM283.593 128.059L268.932 132.67L256.972 119.867L271.657 115.312L283.593 128.059ZM233.851 74.929L219.085 79.3033L215.896 75.8893L207.266 66.653L222.062 62.3341L233.851 74.929ZM221.502 61.7362L206.708 66.0551L200.349 59.2483L194.926 53.4429L209.751 49.184L221.502 61.7362ZM209.19 48.5855L194.367 52.8437L189.857 48.015L182.623 40.2697L197.471 36.0709L209.19 48.5855ZM97.1326 80.7715L81.3565 85.2998L81.0779 84.9966L77.3437 80.9319L69.401 72.2856L85.202 67.8176L97.1326 80.7715ZM74.1563 216.972L85.8097 229.836L81.5323 243.265L69.9335 230.43L74.1563 216.972ZM178.825 281.129L182.507 270.589L183.403 268.023L197.169 263.3L198.155 262.961L193.533 276.032L178.825 281.129ZM225.211 265.061L229.903 252.07L241.948 247.936L244.264 247.142L239.533 260.098L225.211 265.061ZM243.941 105.91L239.826 101.505L232.051 93.1836L246.788 88.7491L258.648 101.42L243.941 105.91ZM181.834 40.493L193.58 53.0698L191.184 53.7583L178.63 57.3652L170.538 48.6808L166.854 44.7281L181.834 40.493ZM166.065 44.9514L177.844 57.591L162.757 61.9234L150.954 49.2239L166.065 44.9514ZM101.647 63.1698L113.551 76.0556L97.9167 80.5463L85.9887 67.595L101.647 63.1698ZM80.5731 85.5248L80.8315 85.8065L78.0968 94.794L76.4605 100.172L64.5745 87.2135L68.8958 72.8139L80.5731 85.5248ZM50.8598 132.919L57.6335 140.352L62.5711 145.771L58.3427 159.645L46.6859 146.822L50.8598 132.919ZM53.6615 175.026L52.8266 177.766L49.5065 188.662L37.9595 175.91L42.0596 162.24L53.6615 175.026ZM37.7147 176.726L47.8353 187.903L49.2588 189.475L49.2241 189.589L45.1409 202.995L33.6461 190.281L37.7147 176.726ZM45.7104 203.625L49.8286 190.105L61.4058 202.892L59.0123 210.64L57.238 216.383L45.7104 203.625ZM94.2984 257.388L98.626 243.991L110.35 256.932L108.701 261.963L105.968 270.299L94.2984 257.388ZM123.232 271.158L135.027 284.187L134.858 284.686L130.54 297.485L118.8 284.492L123.232 271.158ZM147.251 292.064L151.753 278.887L166.772 273.734L162.226 286.876L147.251 292.064ZM165.348 280.079L167.646 273.434L182.526 268.324L177.948 281.433L163.102 286.573L165.348 280.079ZM194.414 275.727L197.776 266.218L199.034 262.66L207.839 259.639L213.647 257.646L208.992 270.679L194.414 275.727ZM209.875 270.373L210.366 269L214.529 257.343L229.019 252.373L224.326 265.368L209.875 270.373ZM240.421 259.79L245.151 246.837L246.787 246.276L259.384 241.953L254.62 254.871L240.421 259.79ZM259.71 241.069L245.473 245.955L250.241 232.889L264.517 228.038L259.71 241.069ZM270.011 213.133L255.693 217.951L256.924 214.578L260.546 204.655L268.805 201.905L274.899 199.876L270.011 213.133ZM291.112 155.907L276.631 160.587L281.655 146.82L296.175 142.184L291.112 155.907ZM298.888 123.243L288.632 126.473L284.365 127.817L276.523 119.441L272.432 115.071L286.99 110.558L298.888 123.243ZM286.434 109.966L271.877 114.479L266.37 108.599L259.981 101.777L274.569 97.3245L286.434 109.966ZM261.626 83.5274L247.011 87.9194L235.191 75.2936L249.831 70.9562L261.626 83.5274ZM236.955 57.2307L236.712 57.3016L222.287 61.5074L210.538 48.9578L225.23 44.7359L236.955 57.2307ZM82.0976 243.89L86.3753 230.46L98.0617 243.368L93.7344 256.763L82.0976 243.89ZM130.833 298.897L130.974 298.478L146.078 293.243L141.618 306.311L126.553 311.581L130.833 298.897ZM260.866 203.779L265.762 190.37L280.152 185.624L275.222 198.998L260.866 203.779ZM274.012 96.7307L259.425 101.183L256.8 98.3787L247.568 88.5147L262.184 84.122L274.012 96.7307ZM224.669 44.1374L214.94 46.933L209.977 48.3592L200.057 37.7654L198.261 35.8476L212.982 31.681L224.669 44.1374ZM212.42 31.0814L210.093 31.7398L197.699 35.2475L188.714 25.6472L186.021 22.7693L200.766 18.6629L212.42 31.0814ZM89.2315 49.7197L101.092 62.5676L93.9503 64.5861L85.4343 66.9929L73.544 54.085L89.2315 49.7197ZM56.4197 59.2404L68.3225 72.1897L66.8683 77.0359L64.0014 86.5887L52.1534 73.6693L56.4197 59.2404ZM43.0122 104.601L47.0385 109.01L54.7426 117.447L50.5323 131.476L38.8565 118.659L43.0122 104.601ZM50.2877 132.291L46.2335 145.796L46.1142 146.193L34.4957 133.414L38.6147 119.477L50.2877 132.291ZM29.9247 148.866L41.4882 161.61L40.517 164.848L37.3882 175.279L25.8741 162.566L29.9247 148.866ZM45.4625 204.439L55.0819 215.084L56.9875 217.193L52.8516 230.568L41.376 217.848L45.4625 204.439ZM89.7487 271.473L94.0396 258.189L101.682 266.644L105.706 271.097L101.361 284.347L89.7487 271.473ZM114.135 298.51L118.535 285.287L120.439 287.394L130.273 298.277L125.823 311.466L114.135 298.51ZM162.798 287.451L164.943 286.708L177.64 282.313L173.093 295.304L158.296 300.482L162.798 287.451ZM173.973 294.997L175.7 290.061L178.518 282.008L193.222 276.913L188.642 289.871L173.973 294.997ZM209.56 271.255L221.041 267.278L224.006 266.251L219.351 279.133L204.944 284.172L209.56 271.255ZM224.892 265.944L239.21 260.983L234.522 273.827L220.238 278.823L224.892 265.944ZM281.359 184.457L282.422 181.577L286.336 170.974L300.641 166.304L295.63 179.748L281.359 184.457ZM306.346 150.99L291.993 155.622L292.073 155.407L297.056 141.903L297.321 141.818L297.437 141.781L311.442 137.306L306.346 150.99ZM72.7548 54.3048L84.6473 67.2154L68.8476 71.6831L68.5665 71.3772L56.9247 58.7122L72.7548 54.3048ZM51.9123 74.4856L56.6278 79.6274L63.7574 87.4019L59.4733 101.674L47.6878 88.7873L51.9123 74.4856ZM25.6321 163.385L37.1434 176.096L33.0751 189.649L21.6186 176.968L25.6321 163.385ZM189.524 289.563L194.102 276.608L205.61 272.623L208.677 271.561L204.06 284.481L189.524 289.563ZM235.411 273.516L240.098 260.675L252.812 256.27L254.293 255.757L249.567 268.568L235.411 273.516ZM250.458 268.256L250.733 267.512L255.184 255.449L255.989 255.17L269.251 250.573L264.496 263.346L250.458 268.256ZM274.708 235.921L260.599 240.764L261.374 238.664L265.405 227.736L279.548 222.928L274.708 235.921ZM290.34 193.961L276.107 198.703L281.036 185.333L295.304 180.625L290.34 193.961ZM321.448 146.111L307.229 150.705L311.952 138.025L312.325 137.024L326.583 132.47L321.448 146.111ZM312.649 136.154L312.154 136.312L302.296 125.809L300.215 123.592L314.618 119.06L326.527 131.72L312.649 136.154ZM314.063 118.469L299.66 123L287.765 110.318L302.192 105.847L314.063 118.469ZM287.209 109.726L277.462 99.3409L275.347 97.087L289.802 92.6715L301.635 105.255L287.209 109.726ZM276.894 95.8506L274.79 96.4934L265.326 86.4054L262.964 83.8878L277.444 79.5321L289.244 92.078L276.894 95.8506ZM276.885 78.9378L273.489 79.9591L262.406 83.2927L250.614 70.7247L265.122 66.4294L276.885 78.9378ZM250.055 70.1286L247.889 67.8205L238.3 57.5989L252.838 53.3588L264.562 65.8336L250.055 70.1286ZM173.017 9.95054L184.665 22.3883L169.79 26.5314L160.387 16.465L158.116 14.0338L173.017 9.95054ZM157.322 14.2514L168.997 26.7523L167.941 27.0461L153.995 30.9266L142.29 18.3708L157.322 14.2514ZM141.496 18.5888L153.204 31.1472L153.006 31.2022L138.065 35.364L126.327 22.7455L141.496 18.5888ZM93.2139 31.822L105.009 44.5641L89.4644 48.8969L77.6395 36.09L93.2139 31.822ZM76.8473 36.3068L88.6747 49.1169L72.988 53.4815L70.3565 50.6242L61.1358 40.6121L76.8473 36.3068ZM55.5815 58.3284L55.8451 58.6154L51.579 73.043L39.7689 60.1615L43.9805 45.7044L55.5815 58.3284ZM51.3377 73.8591L49.248 80.9343L47.1137 88.1598L35.3609 75.3166L39.5305 60.9808L51.3377 73.8591ZM22.0928 120.864L33.6807 133.602L29.5938 147.417L18.0603 134.714L22.0928 120.864ZM17.8211 135.536L29.3517 148.235L25.3016 161.934L13.8258 149.263L17.8211 135.536ZM13.5863 150.086L24.6212 162.269L25.0594 162.753L22.6339 170.961L21.0461 176.334L9.62237 163.697L13.5863 150.086ZM9.38294 164.52L15.1072 170.852L20.8039 177.154L16.8221 190.625L5.4507 178.02L9.38294 164.52ZM25.1243 218.674L29.1243 205.352L40.5588 218.031L36.5096 231.323L25.1243 218.674ZM49.0693 245.268L53.1688 232.009L64.6742 244.764L60.5203 257.994L49.0693 245.268ZM61.0865 258.623L65.2407 245.392L71.116 251.904L76.7845 258.186L73.7342 267.765L72.5807 271.388L61.0865 258.623ZM109.512 312.412L113.87 299.306L125.556 312.258L121.143 325.33L109.512 312.412ZM121.873 325.443L126.115 312.878L126.247 312.488L126.257 312.458L141.318 307.19L136.89 320.145L121.873 325.443ZM184.671 303.288L188.273 293.102L189.212 290.446L193.291 289.02L203.744 285.365L199.169 298.173L184.671 303.288ZM215.306 292.475L219.918 279.708L234.198 274.714L229.547 287.45L215.306 292.475ZM245.448 281.839L246.464 279.084L250.131 269.144L255.833 267.15L264.165 264.236L259.443 276.901L245.448 281.839ZM260.338 276.585L265.059 263.923L278.965 259.062L274.215 271.69L260.338 276.585ZM289.59 230.809L275.599 235.615L278.9 226.754L280.438 222.625L294.463 217.855L289.59 230.809ZM294.796 216.97L280.767 221.741L285.648 208.64L290.217 207.101L299.711 203.903L294.796 216.97ZM300.043 203.021L285.977 207.758L290.335 196.062L290.901 194.544L305.002 189.846L300.043 203.021ZM305.333 188.965L291.228 193.665L291.943 191.745L296.19 180.332L310.329 175.672L305.333 188.965Z" fill="#B3AFCA"/>
</svg>
