<svg width="293" height="327" viewBox="0 0 293 327" fill="none" xmlns="http://www.w3.org/2000/svg">
<g clip-path="url(#clip0_96_1010)">
<path d="M292.751 202.391L292.72 202.138L292.768 201.579L292.655 201.622L287.791 162.631L287.845 162.608L287.752 162.316L287.694 161.853L287.615 161.887L275.13 122.818L275.186 122.791L275.021 122.478L274.899 122.093L274.836 122.124L255.55 85.3928L255.612 85.3585L255.363 85.0378L255.2 84.7263L255.145 84.7564L230.255 52.6192L230.331 52.5723L229.977 52.2596L229.792 52.0209L229.741 52.0521L200.775 26.5167L200.881 26.4449L200.379 26.1678L200.192 26.0031L200.142 26.037L168.894 8.77186L169.067 8.64418L168.336 8.46375L168.169 8.37145L168.117 8.40967L136.622 0.636431L136.994 0.343994L135.814 0.436937L135.696 0.407624L135.642 0.450539L106.169 2.77216L107.652 1.55477L104.907 2.87158L104.858 2.8754L104.801 2.92208L77.8045 15.8707L77.7338 15.9298L77.7259 15.9214L56.5273 33.6611L54.9438 34.9851L55.5397 33.9541L53.3325 36.3231L53.2918 36.3428L53.2654 36.3883L50.9931 38.2883L51.9174 37.8421L32.6276 58.5473L32.5791 58.5873L32.5487 58.6554L19.3504 82.902L19.4186 82.3604L18.4133 84.6133L18.3732 84.6565L18.3666 84.7092L16.9672 87.2776L17.4627 86.7435L6.2301 111.915L6.22391 112.016L6.20148 112.014L1.43382 144.655L1.40809 144.695L1.41594 144.786L1.17389 146.435L1.37545 146.124L1.12138 154.165L0.847823 162.748L0.664001 162.431L0.803575 164.057L0.790871 164.144L0.814626 164.185L3.21655 192.159L2.90691 191.858L3.29607 193.167L3.30597 193.2L3.31477 193.303L3.34522 193.332L11.1379 219.537L11.9138 222.146L11.7768 222.131L12.0038 222.567L12.0859 222.725L12.1467 222.929L12.315 223.495L12.4081 223.344L25.4855 248.468L26.1567 249.757L25.9258 249.715L26.4156 250.33L26.5293 250.473L26.8911 251.168L26.955 251.008L44.7599 273.365L45.5039 274.299L45.5118 274.341L45.587 274.403L46.5008 275.551L46.4145 275.087L67.7507 292.701L67.7713 292.745L67.8512 292.784L69.0972 293.813L68.9734 293.547L83.2895 303.317L82.7565 303.286L84.4156 304.088L84.4751 304.137L84.5228 304.14L113.725 318.27L113.83 318.282L113.827 318.302L140.612 322.724L140.307 322.778L142.716 323.074L142.769 323.103L142.841 323.09L144.999 323.448L144.772 323.327L172.506 326.732L172.58 326.744L172.641 326.728L177.888 325.774L200.266 321.708L199.811 321.99L202.175 321.365L202.234 321.371L202.281 321.342L204.918 320.863L204.293 320.805L233.191 313.164L258.832 297.138L258.906 297.117L258.943 297.068L261.072 295.737L259.654 296.129L277.936 272.006L278.001 271.986L278.045 271.861L278.708 270.987L278.312 271.106L289.398 239.678L289.458 239.658L289.475 239.461L289.716 238.777L289.529 238.84L292.696 202.412L292.751 202.391ZM291.916 202.711L288.752 239.102L257.162 249.768L260.421 214.758L291.916 202.711ZM232.958 312.442L209.896 316.611L227.136 305.902L256.295 297.839L232.958 312.442ZM102.358 4.92819L79.5226 23.6798L65.0303 30.6759L78.1932 16.5188L102.358 4.92819ZM134.574 1.29017L109.338 21.1224L80.8991 23.5225L105.152 3.60756L134.574 1.29017ZM135.872 1.22654L167.328 8.99046L140.72 28.5881L110.326 21.3032L121.378 12.6175L135.872 1.22654ZM199.444 26.5111L171.636 45.3854L141.501 28.9472L168.227 9.26319L199.444 26.5111ZM229.072 52.4649L200.179 70.2829L172.271 45.8633L200.132 26.9529L229.072 52.4649ZM224.631 101.652L200.695 70.8489L229.611 53.0162L254.48 85.1248L224.631 101.652ZM257.031 175.18L255.706 175.756L243.82 138.234L274.449 123.154L286.922 162.188L257.031 175.18ZM263.152 212.908L260.385 213.967L255.88 176.501L287.073 162.943L291.933 201.898L263.152 212.908ZM223.878 314.848L202.076 320.614L181.49 324.355L202.596 318.695L223.878 314.848ZM142.893 322.338L129.703 320.16L140.104 321.377L140.178 321.413L140.234 321.397L154.683 323.785L142.893 322.338ZM68.294 292.175L50.2564 277.283L56.6891 281.235L56.9163 281.375L57.006 281.488L57.0533 281.484L71.5909 293.494L78.0606 298.838L68.294 292.175ZM27.7647 250.818L33.3742 251.846L33.4364 251.965L33.4911 251.947L48.2292 270.462L55.5454 279.653L46.1086 273.851L27.7647 250.818ZM4.05801 193.093L5.08179 182.653L15.3158 217.037L15.267 217.07L15.3219 217.176L12.556 221.67L4.05801 193.093ZM1.55704 164.08L1.96696 151.166L2.11937 152.931L4.5069 180.58L4.47544 180.616L4.514 180.746L3.70159 189.031L1.55704 164.08ZM19.0607 85.0038L28.6781 67.3375L19.0101 89.0233L18.9653 89.0587L18.954 89.1375L10.3241 104.584L19.0607 85.0038ZM53.7998 36.9206L73.606 20.3494L56.3754 38.8849L37.1198 54.8279L53.7998 36.9206ZM245.262 281.017L209.181 282.306L219.186 255.304L256.174 250.758L245.262 281.017ZM225.22 145.964L207.632 154.047L191.149 122.58L224.384 102.664L242.847 137.862L225.22 145.964ZM169.12 312.307L144.425 300.199L155.548 293.53L190.896 304.351L181.874 309.876L176.007 313.47L169.12 312.307ZM16.2406 217.312L29.7402 207.99L31.1153 210.63L49.502 245.924L33.8084 251.052L16.2406 217.312ZM17.4226 167.097L29.4301 207.257L29.3745 207.288L29.39 207.318L15.966 216.588L5.31472 180.802L17.4226 167.097ZM47.8002 60.1048L48.3748 59.823L60.0789 54.0825L48.7682 89.0109L39.8949 93.4602L43.0541 70.8585L47.8002 60.1048ZM14.5314 125.129L19.6659 89.4631L42.1877 71.6311L37.0021 108.729L14.6264 125.06L14.5314 125.129ZM143.62 299.804L135.139 295.645L113.441 277.564L120.402 273.498L154.754 293.129L145.737 298.535L143.62 299.804ZM107.482 304.648L77.2909 279.631L92.6217 273.629L102.775 269.655L134.173 295.819L107.482 304.648ZM18.0295 166.503L40.9909 151.617L53.6696 193.73L30.1022 206.882L18.0295 166.503ZM115.655 57.8712L142.647 72.3588L116.496 103.61L94.4193 91.9639L110.422 66.2737L115.655 57.8712ZM190.509 122.977L206.944 154.354L169.321 170.663L159.193 151.31L155.921 145.059L177.17 131.493L190.509 122.977ZM218.575 254.566L178.466 252.767L181.221 227.369L221.709 223.36L218.575 254.566ZM75.5114 234.13L68.0454 219.811L88.1345 245.317L85.9801 246.538L85.5423 246.786L75.5114 234.13ZM60.9906 53.7061L86.795 51.3101L70.6289 86.6685L49.6122 88.8433L60.9906 53.7061ZM155.406 292.635L142.198 285.087L120.973 272.958L130.523 261.296L168.821 275.847L155.406 292.635ZM54.4663 193.769L48.0949 172.607L48.8784 172.191L49.7542 171.726L59.2018 202.851L54.4663 193.769ZM154.884 144.841L121.09 167.73L121.084 167.719L121.024 167.762L108.725 152.13L137.507 122.657L154.884 144.841ZM61.0806 206.454L50.4697 171.496L57.6265 170.576L61.4922 207.244L61.0806 206.454ZM93.2384 138.849L93.1978 138.814L93.1535 138.902L91.2876 137.935L77.665 130.879L80.385 124.538L94.0712 92.6311L116.047 104.224L93.2384 138.849ZM145.15 180.555L130.848 186.404L129.541 183.903L121.441 168.401L155.291 145.475L168.626 170.955L145.15 180.555ZM65.0511 212.31L97.1306 211.512L98.0557 220.916L94.4506 219.976L65.0511 212.31ZM62.364 208.345L58.3869 170.623L66.0285 172.149L62.364 208.345ZM107.698 152.148L82.6414 182.093L82.6129 182.057L82.5589 182.135L75.3179 176.03L93.4388 140.007L107.698 152.148ZM64.0706 210.203L82.6527 183.321L88.7395 191.031L64.0706 210.203ZM92.8155 139.574L74.727 175.532L74.6734 175.486L74.6355 175.595L66.8773 171.649L77.4253 131.603L92.8155 139.574ZM61.2066 128.077L76.7176 131.34L66.1921 171.3L66.1183 171.263L66.1048 171.397L58.357 169.85L60.1614 143.397L61.2066 128.077ZM89.4015 190.538L89.394 190.523L89.3332 190.57L87.2161 187.888L83.1172 182.696L108.217 152.699L120.414 168.202L89.4015 190.538ZM94.5084 200.318L91.886 195.296L89.7533 191.211L115.814 172.442L120.82 168.836L130.145 186.681L115.531 192.273L94.5084 200.318ZM89.1447 191.669L93.7962 200.578L86.3301 203.197L64.4243 210.881L89.1447 191.669ZM138.393 226.082L128.194 224.793L98.8268 221.08L97.8835 211.493L97.9731 211.491L97.9609 211.45L136.429 207.139L138.393 226.082ZM97.7015 230.731L98.802 221.889L98.9088 221.916L98.9021 221.848L138.399 226.842L136.348 244.455L97.7015 230.731ZM139.155 226.143L137.176 207.055L137.256 207.046L137.247 207.016L177.498 199.546L180.461 226.643L139.155 226.143ZM63.0673 208.855L66.7551 172.431L74.386 176.313L63.0673 208.855ZM63.6349 209.511L75.0241 176.766L82.1294 182.756L63.6349 209.511ZM94.0851 201.274L96.967 210.763L64.7506 211.564L94.0851 201.274ZM65.2598 213.142L98.0686 221.697L96.9868 230.39L66.5059 213.82L65.2598 213.142ZM96.8167 231.155L93.8113 238.548L65.2916 214.016L96.8167 231.155ZM120.355 272.525L89.2264 245.387L94.0444 239.661L129.836 260.949L126.167 265.429L120.355 272.525ZM136.271 206.399L97.7386 210.718L94.7947 201.025L94.8647 201L94.8591 200.99L130.433 187.377L136.271 206.399ZM76.958 130.621L61.3194 127.331L71.1575 87.4674L93.3621 92.3778L76.958 130.621ZM60.4557 128.045L57.606 169.82L56.4637 169.967L50.3127 170.757L45.8585 129.729L57.4561 128.391L60.4557 128.045ZM91.5354 241.475L88.7105 244.833L66.171 216.217L65.7436 215.397L93.4351 239.217L91.5354 241.475ZM122.927 255.964L94.4323 239.016L97.4809 231.516L97.5961 231.578L97.6063 231.496L136.174 245.192L130.216 260.299L122.927 255.964ZM177.721 252.676L137.08 244.665L139.149 226.895L180.462 227.396L178.499 245.501L177.721 252.676ZM60.5592 127.275L45.8604 128.972L49.423 89.6196L70.3879 87.45L60.5592 127.275ZM137.024 206.292L133.031 193.28L131.136 187.108L131.203 187.082L131.198 187.074L168.913 171.65L177.344 198.809L137.024 206.292ZM136.989 122.111L108.256 151.534L108.235 151.506L108.181 151.571L93.9453 139.451L93.815 139.34L100.317 129.469L116.668 104.648L136.989 122.111ZM45.0892 129.158L39.8292 131.871L37.7301 108.948L39.7683 94.3654L48.6418 89.9162L45.0892 129.158ZM45.1303 129.984L49.58 170.966L47.8737 171.872L41.5769 150.958L39.9031 132.679L45.1303 129.984ZM88.6547 245.887L119.758 273.003L117.737 274.183L112.826 277.051L103.115 268.959L86.0151 247.383L88.6547 245.887ZM169.22 275.193L137.395 263.102L130.893 260.632L135.423 249.145L136.901 245.397L177.539 253.408L169.484 274.503L169.22 275.193ZM178.237 199.386L217.875 189.219L221.712 222.603L181.214 226.613L178.237 199.386ZM93.7085 91.6835L71.4161 86.7534L87.621 51.3111L114.925 57.6214L93.7085 91.6835ZM30.3788 207.59L53.9623 194.428L74.6806 234.162L50.2071 245.651L30.3788 207.59ZM217.721 188.481L178.08 198.648L171.67 177.995L169.612 171.365L169.675 171.339L169.671 171.331L207.231 155.05L210.102 164.198L217.721 188.481ZM137.534 121.588L117.116 104.041L143.275 72.7804L168.223 94.4217L137.534 121.588ZM37.0384 109.634L40.8113 150.837L17.9081 165.686L14.4252 126.138L37.0384 109.634ZM50.6306 246.283L69.6156 237.371L75.0857 234.803L102.235 269.058L76.6805 279.061L50.6306 246.283ZM156.138 292.924L169.591 276.088L207.953 282.962L191.667 303.8L158.214 293.559L156.138 292.924ZM208.391 282.276L169.95 275.388L178.304 253.513L218.382 255.311L212.142 272.152L208.391 282.276ZM190.101 122.345L155.571 144.39L155.566 144.38L155.508 144.419L138.052 122.134L168.743 94.9654L171.178 98.0873L190.101 122.345ZM108.401 305.137L116.406 302.489L134.907 296.369L167.965 312.579L140.246 320.61L108.401 305.137ZM219.334 254.527L222.475 223.249L259.647 214.97L256.388 249.973L219.334 254.527ZM143.173 71.7869L116.121 57.2674L140.884 29.468L171.018 45.9055L143.173 71.7869ZM87.2071 50.5157L61.4467 52.9075L62.3559 51.504L79.9408 24.3588L108.677 21.9336L87.2071 50.5157ZM60.4514 53.0617L48.2722 59.0353L56.9554 39.3608L63.6205 32.1922L78.6804 24.9219L60.4514 53.0617ZM34.2537 251.698L42.4089 249.034L49.8547 246.601L49.8739 246.638L49.9311 246.611L64.2987 264.69L75.8264 279.195L57.3439 280.705L34.2537 251.698ZM58.1285 281.396L76.3902 279.904L76.4379 279.964L76.4901 279.944L106.281 304.629L84.7635 303.4L58.1285 281.396ZM177.136 313.66L191.903 304.616L225.74 305.883L207.885 316.975L202.519 317.945L177.136 313.66ZM259.655 214.196L222.454 222.482L218.607 189.008L255.156 176.77L256.03 184.045L259.655 214.196ZM255.003 176.028L218.442 188.269L207.922 154.742L243.135 138.559L244.465 142.757L255.003 176.028ZM223.975 102.032L190.743 121.946L169.325 94.4889L172.448 92.1304L200.072 71.2723L218.107 94.482L223.975 102.032ZM199.545 70.7269L168.81 93.935L143.795 72.236L158.981 58.1205L171.664 46.3318L196.701 68.2381L199.545 70.7269ZM140.103 29.214L115.391 56.9564L88.055 50.6385L109.634 21.9115L126.376 25.9239L140.103 29.214ZM55.647 40.4645L42.3835 70.5166L20.282 88.0159L33.1932 59.0555L55.647 40.4645ZM13.7537 127.078L17.1946 166.148L17.1481 166.178L17.169 166.248L9.06603 175.42L5.19386 179.803L2.17875 144.888L13.7537 127.078ZM141.912 320.911L167.21 313.581L169.026 313.055L200.752 318.41L172.542 325.975L141.912 320.911ZM226.805 305.17L192.554 303.887L208.822 283.072L244.745 281.789L230.498 300.357L226.805 305.17ZM6.93473 112.192L18.6549 91.214L13.6831 125.749L13.6395 125.78L13.6467 125.863L2.41301 143.149L6.93473 112.192ZM12.8673 222.598L15.7264 217.952L22.8513 231.636L32.9337 251L27.0934 249.929L12.8673 222.598ZM86.4821 304.252L107.259 305.439L107.324 305.493L107.376 305.476L138.051 320.38L113.994 317.564L86.4821 304.252ZM243.527 137.539L225.036 102.288L244.302 91.6207L254.892 85.757L274.161 122.456L243.527 137.539ZM227.966 304.891L245.754 281.71L276.713 272.374L258.461 296.459L227.966 304.891ZM246.137 280.808L257.026 250.609L288.494 239.984L277.42 271.375L246.137 280.808Z" fill="#B3AFCA"/>
</g>
<defs>
<clipPath id="clip0_96_1010">
<rect width="292.104" height="326.4" fill="white" transform="translate(0.664001 0.343994)"/>
</clipPath>
</defs>
</svg>
