<svg width="81" height="80" viewBox="0 0 81 80" fill="none" xmlns="http://www.w3.org/2000/svg">
<path fill-rule="evenodd" clip-rule="evenodd" d="M44.86 47C45.46 47.76 46.18 48.62 46.18 48.62C50.6 48.48 52.3 45.58 52.3 45.58C52.3 39.14 49.42 33.92 49.42 33.92C46.54 31.76 43.8 31.82 43.8 31.82L43.52 32.14C46.92 33.18 48.5 34.68 48.5 34.68C46.42 33.54 44.38 32.98 42.48 32.76C41.04 32.6 39.66 32.64 38.44 32.8C38.3352 32.8 38.2457 32.8152 38.1448 32.8324L38.1 32.84C37.4 32.9 35.7 33.16 33.56 34.1C32.82 34.44 32.38 34.68 32.38 34.68C32.38 34.68 34.04 33.1 37.64 32.06L37.44 31.82C37.44 31.82 34.7 31.76 31.82 33.92C31.82 33.92 28.94 39.14 28.94 45.58C28.94 45.58 30.62 48.48 35.04 48.62C35.04 48.62 35.78 47.72 36.38 46.96C33.84 46.2 32.88 44.6 32.88 44.6C32.88 44.6 33.08 44.74 33.44 44.94C33.46 44.96 33.48 44.98 33.52 45C33.55 45.02 33.58 45.035 33.61 45.05C33.64 45.065 33.67 45.08 33.7 45.1C34.2 45.38 34.7 45.6 35.16 45.78C35.98 46.1 36.96 46.42 38.1 46.64C39.6 46.92 41.36 47.02 43.28 46.66C44.22 46.5 45.18 46.22 46.18 45.8C46.88 45.54 47.66 45.16 48.48 44.62C48.48 44.62 47.48 46.26 44.86 47ZM34.84 41.5C34.84 40.28 35.74 39.28 36.88 39.28C38.02 39.28 38.94 40.28 38.92 41.5C38.92 42.72 38.02 43.72 36.88 43.72C35.76 43.72 34.84 42.72 34.84 41.5ZM42.14 41.5C42.14 40.28 43.04 39.28 44.18 39.28C45.32 39.28 46.22 40.28 46.22 41.5C46.22 42.72 45.32 43.72 44.18 43.72C43.06 43.72 42.14 42.72 42.14 41.5Z" fill="#E2FF29"/>
<path fill-rule="evenodd" clip-rule="evenodd" d="M68 0C74.9036 0 80.5 5.59644 80.5 12.5V67.5C80.5 74.4036 74.9036 80 68 80H13C6.09644 80 0.5 74.4036 0.5 67.5V12.5C0.5 5.59644 6.09644 0 13 0H68ZM27.1 22.5H53.9C56.16 22.5 58 24.34 58 26.62V62.5L53.7 58.7L51.28 56.46L48.72 54.08L49.78 57.78H27.1C24.84 57.78 23 55.94 23 53.66V26.62C23 24.34 24.84 22.5 27.1 22.5Z" fill="#E2FF29"/>
</svg>
